<svg width="177" height="68" viewBox="0 0 177 68" fill="none" xmlns="http://www.w3.org/2000/svg">
<path d="M72.4803 41.0121C72.4803 41.0121 72.4803 40.9899 72.4803 40.9815C71.8232 41.0176 71.1632 41.0398 70.5061 41.0954C68.579 41.2591 66.6436 41.373 64.7276 41.6228C62.2543 41.9448 59.8337 42.5222 57.6238 43.7464C56.1986 44.5348 54.9259 45.5175 53.9138 46.8083C52.7576 48.2907 52.2585 49.9701 52.3777 51.8467C52.5413 54.4533 53.7974 56.3298 56.1431 57.4486C57.7014 58.1925 59.3623 58.3341 61.0731 58.2231C64.0788 58.0287 66.6325 56.8573 68.8036 54.8058C70.1179 53.5622 71.1937 52.1298 72.0755 50.5475C73.667 47.6994 74.3242 44.6375 74.2133 41.3924C74.205 41.1287 74.0941 41.0065 73.8306 41.0093C73.3815 41.0149 72.9323 41.0093 72.4831 41.0093M58.4445 68H54.7345C54.6264 67.975 54.5183 67.9361 54.4101 67.9278C51.9978 67.7502 49.6936 67.1728 47.5614 66.0124C44.2008 64.183 41.9271 61.4626 40.9539 57.7262C40.4853 55.919 40.366 54.0785 40.4686 52.2131C40.5879 50.0395 41.0481 47.9575 41.9604 45.9811C43.3828 42.9081 45.6399 40.5596 48.4209 38.6969C52.3888 36.0403 56.8169 34.5552 61.4668 33.6641C65.5068 32.8896 69.5911 32.6009 73.6975 32.5676C74.0774 32.5648 74.2216 32.4399 74.2161 32.054C74.1994 30.6328 74.2577 29.2115 74.1911 27.7957C74.1024 25.8831 73.7225 24.0315 72.7271 22.3548C71.9701 21.0807 70.9913 20.0369 69.4857 19.7232C68.3516 19.4873 67.1871 19.2818 66.0336 19.2652C60.7099 19.193 55.3834 19.1764 50.0597 19.168C41.3032 19.1541 32.5496 19.1653 23.7932 19.1653C23.2164 19.1653 23.1998 19.1791 23.1998 19.7565C23.2275 29.639 23.2358 39.5214 23.3079 49.4038C23.3163 50.653 23.5908 51.9133 23.8514 53.1458C24.0704 54.1813 24.5085 55.1501 25.3404 55.8774C26.6131 56.985 28.1658 57.2681 29.7713 57.357C31.6346 57.4597 33.4785 57.3098 35.2752 56.7684C35.583 56.6741 35.7549 56.724 35.852 57.0877C36.193 58.3757 36.4897 59.686 36.9555 60.9296C37.7042 62.9394 38.7828 64.7577 40.5158 66.1096C40.5657 66.1484 40.5989 66.2095 40.6766 66.3011C40.4936 66.365 40.3549 66.426 40.2108 66.4649C37.0387 67.3421 33.7918 67.7335 30.5199 67.8973C28.798 67.9833 27.065 67.8917 25.3404 67.8362C23.502 67.7751 21.7191 67.3948 19.9945 66.7508C17.3298 65.7598 15.1199 64.1525 13.448 61.8457C11.6678 59.3917 10.8942 56.5991 10.8887 53.6066C10.8637 42.3445 10.8776 31.0825 10.8776 19.8204C10.8776 19.3836 10.6595 19.1653 10.2232 19.1653C7.01789 19.1653 3.81534 19.1653 0.61001 19.1653C0.0166366 19.1653 0 19.1458 0 18.5434C0.00277277 15.7453 0.00277277 12.9471 0.00277277 10.1489C0.00277277 9.55487 0.0221822 9.53266 0.621101 9.53266C3.7682 9.53266 6.91807 9.53266 10.0652 9.53266C10.6086 9.53266 10.8804 9.26802 10.8804 8.73873C10.8804 6.0405 10.8804 3.33948 10.8804 0.641248C10.8804 0.0194317 10.897 0.00277596 11.5209 0.00277596C15.1893 0.00277596 18.8576 0.00277596 22.5232 0C23.2026 0 23.2026 0 23.2026 0.680111C23.2026 3.40888 23.2026 6.13488 23.2026 8.86365C23.2026 9.30781 23.4179 9.53081 23.8486 9.53266C23.9595 9.53266 24.0732 9.53266 24.1869 9.53266C35.2198 9.53266 46.2499 9.51878 57.2827 9.54099C61.3698 9.54931 65.4569 9.58818 69.5412 9.72142C71.4266 9.78249 73.3149 10.0518 75.1838 10.3294C76.7171 10.557 78.1922 11.0511 79.5564 11.8089C81.7109 13.0054 83.1749 14.8486 84.2979 16.9861C85.834 19.9092 86.4884 23.0821 86.5078 26.3411C86.566 36.4206 86.5299 46.5029 86.5327 56.5852C86.5327 57.046 86.7666 57.2774 87.2342 57.2792C89.3693 57.2792 91.5071 57.2792 93.6421 57.2792C94.1745 57.2792 94.4407 57.0109 94.4407 56.4742C94.4407 41.0509 94.4407 25.6277 94.4407 10.2017C94.4407 9.54931 94.4518 9.53821 95.0978 9.53821C98.7801 9.53821 102.462 9.53821 106.145 9.53821C106.743 9.53821 106.766 9.56042 106.766 10.1517C106.766 12.8361 106.766 15.5232 106.766 18.2075V18.6517C106.907 18.5684 106.974 18.4657 107.029 18.363C108.097 16.442 109.441 14.7487 111.111 13.308C114.69 10.2183 118.891 8.71653 123.558 8.45281C125.507 8.34177 127.462 8.40839 129.391 8.78037C132.231 9.32724 134.757 10.4376 136.748 12.6417C138.644 14.7431 139.983 17.1166 140.652 19.8676C140.696 20.048 140.754 20.2257 140.832 20.4977C140.954 20.2923 141.015 20.1868 141.079 20.0785C141.475 19.3984 141.844 18.7017 142.274 18.0438C143.613 15.9895 145.288 14.2407 147.182 12.6917C149.111 11.115 151.255 9.9546 153.653 9.26061C155.93 8.59993 158.251 8.38618 160.613 8.42782C162.934 8.46946 165.202 8.7887 167.392 9.57707C170.337 10.6375 172.672 12.4613 174.308 15.1484C175.738 17.5024 176.401 20.1035 176.753 22.8018C176.85 23.5513 176.92 24.3063 177 25.0558V66.8979C173.065 66.8979 169.131 66.9007 165.196 66.9035C165.141 66.9035 165.066 66.9229 165.03 66.8952C164.908 66.7924 164.755 66.6897 164.7 66.5537C164.642 66.4066 164.683 66.2206 164.683 66.0513C164.683 55.0279 164.686 44.0046 164.681 32.9812C164.681 31.2102 164.672 29.4391 164.584 27.6736C164.5 26.0136 164.19 24.3813 163.56 22.8267C162.992 21.4277 162.132 20.2923 160.735 19.6122C159.329 18.9265 157.835 18.7905 156.301 18.8072C154.457 18.8294 152.744 19.3235 151.166 20.2507C148.047 22.0828 145.865 24.7838 144.279 27.9762C142.709 31.1352 141.963 34.5302 141.944 38.0418C141.894 47.4468 141.924 56.8545 141.924 66.2595C141.924 66.8896 141.911 66.9035 141.292 66.9035C137.61 66.9035 133.928 66.9035 130.245 66.9035C130.162 66.9035 130.076 66.9007 129.993 66.9035C129.735 66.909 129.597 66.7952 129.605 66.526C129.608 66.3705 129.605 66.2178 129.605 66.0624C129.605 55.0529 129.613 44.0434 129.597 33.034C129.597 31.1824 129.536 29.3281 129.43 27.4765C129.33 25.6971 128.94 23.9704 128.199 22.3382C127.595 21.0029 126.649 19.9897 125.266 19.4651C122.715 18.4962 120.136 18.5573 117.599 19.4873C115.037 20.4255 113.104 22.2049 111.463 24.3313C108.277 28.4536 106.852 33.2033 106.799 38.3249C106.699 47.6328 106.768 56.9406 106.768 66.2484C106.768 66.8896 106.755 66.9063 106.15 66.9063C95.9602 66.9063 85.773 66.9063 75.583 66.9063C74.9869 66.9063 74.9675 66.8841 74.9675 66.2872C74.9675 63.5723 74.9675 60.8602 74.9675 58.1453V57.6373C74.8787 57.7234 74.8399 57.7456 74.8233 57.7761C73.8223 59.6721 72.4748 61.2877 70.9192 62.759C67.9468 65.5655 64.4503 67.2283 60.4076 67.7613C59.756 67.8473 59.1017 67.9195 58.4473 68" fill="white"/>
</svg>
