<svg width="66" height="66" viewBox="0 0 66 66" fill="none" xmlns="http://www.w3.org/2000/svg">
<path d="M49.4664 48.7997C58.5729 39.816 58.5729 25.2504 49.4664 16.2667C40.3599 7.28292 25.5953 7.28293 16.4888 16.2667C7.38228 25.2504 7.38228 39.816 16.4888 48.7997C25.5953 57.7835 40.3599 57.7835 49.4664 48.7997Z" fill="white"/>
<path fill-rule="evenodd" clip-rule="evenodd" d="M20.0088 27.9166H25.2605V45.3133H20.0088V27.9166ZM22.6025 19.0903C24.3531 19.0903 25.7791 20.4971 25.7791 22.2241C25.7791 23.9511 24.3531 25.3578 22.6025 25.3578C20.8519 25.3578 19.4902 23.9511 19.4902 22.2241C19.4902 20.4971 20.8519 19.0903 22.6025 19.0903ZM28.3728 27.9166H33.5592V30.3475C34.6616 28.7484 36.4765 27.7253 38.5517 27.7253H39.9777C43.2839 27.7253 45.9419 30.4119 45.9419 33.6091V45.3133H40.7555V43.7142V35.9111C40.6901 33.9283 39.3295 32.3937 37.3197 32.3937C35.3098 32.3937 33.6246 33.9283 33.5592 35.9111V45.3133H28.3728V27.9166Z" fill="#5F7DA5"/>
</svg>
